<svg xmlns="http://www.w3.org/2000/svg" width="368" height="207" viewBox="0 0 368 207"><rect width="100%" height="100%" fill="#DDDDDD"/><path fill="#999999" d="m78.475 96.225-3.18-.56q.37-2.55 1.42-4.47 1.05-1.93 2.63-3.21 1.58-1.29 3.63-1.94 2.05-.65 4.4-.65 2.45 0 4.42.7 1.97.7 3.37 1.93 1.39 1.24 2.14 2.91.75 1.66.75 3.6 0 1.69-.38 2.98-.38 1.28-1.09 2.24-.71.95-1.76 1.61-1.06.67-2.38 1.11 3.18 1 4.75 3.06 1.57 2.06 1.57 5.17 0 2.65-.98 4.68t-2.65 3.42q-1.66 1.38-3.85 2.09-2.2.71-4.65.71-2.67 0-4.65-.61-1.99-.61-3.46-1.81-1.47-1.2-2.5-2.94t-1.76-4.02l2.67-1.1q1.05-.45 1.97-.24.92.21 1.34 1 .44.85.97 1.69.52.83 1.26 1.48.73.65 1.72 1.05 1 .41 2.37.41 1.54 0 2.69-.51 1.16-.5 1.93-1.31t1.15-1.8q.38-.99.38-1.99 0-1.28-.27-2.32-.27-1.04-1.13-1.78-.86-.73-2.46-1.15-1.61-.41-4.3-.41v-4.32q2.23-.02 3.7-.41 1.47-.39 2.34-1.09.87-.7 1.21-1.68.34-.98.34-2.16 0-2.5-1.39-3.79-1.4-1.3-3.73-1.3-1.07 0-1.98.3-.91.31-1.63.86-.72.55-1.21 1.29-.49.73-.74 1.61-.41 1.13-1.09 1.5-.67.37-1.9.17Zm45.89-10.44-10.51 12.87-1.22 1.51q1.03-.51 2.21-.79 1.19-.28 2.56-.28 2.01 0 3.91.66 1.9.66 3.35 1.99 1.44 1.34 2.32 3.32.89 1.99.89 4.63 0 2.48-.91 4.65-.91 2.17-2.55 3.78-1.64 1.62-3.96 2.55-2.31.93-5.1.93-2.85 0-5.1-.9-2.25-.91-3.85-2.54-1.59-1.63-2.43-3.92-.85-2.29-.85-5.08 0-2.5 1.02-5.14 1.01-2.63 3.15-5.47l8.45-11.35q.44-.58 1.28-1 .85-.42 1.95-.42h5.39Zm-9.14 30.87q1.45 0 2.66-.49 1.21-.49 2.08-1.37.87-.88 1.36-2.07.49-1.19.49-2.58 0-1.52-.46-2.74-.47-1.21-1.32-2.05-.86-.85-2.06-1.29-1.2-.44-2.65-.44-1.44 0-2.62.49-1.18.49-2.01 1.36-.83.87-1.3 2.06-.46 1.18-.46 2.56 0 1.47.4 2.68.41 1.21 1.2 2.07.8.86 1.97 1.34 1.18.47 2.72.47Zm28.47.22q1.5 0 2.62-.43 1.13-.42 1.9-1.18t1.17-1.82q.39-1.05.39-2.27 0-2.92-1.62-4.42-1.62-1.49-4.46-1.49t-4.46 1.49q-1.61 1.5-1.61 4.42 0 1.22.39 2.27.39 1.06 1.16 1.82.77.76 1.9 1.18 1.13.43 2.62.43Zm0-26.92q-1.34 0-2.32.41-.98.42-1.63 1.12-.65.7-.96 1.6-.31.91-.31 1.92 0 1.05.26 2.04t.87 1.76q.61.78 1.62 1.24 1 .47 2.47.47 1.47 0 2.48-.47 1-.46 1.61-1.24.62-.77.87-1.76.26-.99.26-2.04 0-1.01-.32-1.92-.32-.9-.95-1.6-.64-.7-1.62-1.12-.98-.41-2.33-.41Zm5.98 12.79q3.23 1.05 4.78 3.22 1.54 2.17 1.54 5.3 0 2.35-.89 4.27-.9 1.91-2.51 3.25-1.62 1.35-3.89 2.09-2.26.73-5.01.73-2.74 0-5.01-.73-2.26-.74-3.88-2.09-1.62-1.34-2.51-3.25-.9-1.92-.9-4.27 0-3.13 1.55-5.3 1.54-2.17 4.77-3.22-2.57-1.08-3.85-3.07-1.29-1.98-1.29-4.77 0-2.01.82-3.75.82-1.74 2.29-3.03 1.47-1.28 3.52-2.01 2.04-.72 4.49-.72t4.5.72q2.04.73 3.51 2.01 1.47 1.29 2.3 3.03.82 1.74.82 3.75 0 2.79-1.29 4.77-1.29 1.99-3.86 3.07Zm45.91 10.36-3.21 3.16-8.3-8.3-8.38 8.35-3.21-3.16 8.38-8.4-7.99-7.99 3.19-3.19 7.98 7.99 7.94-7.94 3.24 3.19-7.97 7.96 8.33 8.33Zm29.5 2.48h9.09q.98 0 1.56.55.57.55.57 1.45v3.63h-24.3v-2.01q0-.61.26-1.29.25-.67.82-1.21l10.75-10.78q1.35-1.37 2.42-2.62 1.06-1.25 1.77-2.47.71-1.23 1.09-2.49.38-1.26.38-2.66 0-1.27-.37-2.24-.36-.97-1.04-1.63-.67-.66-1.61-.99-.95-.33-2.12-.33-1.08 0-2 .3-.92.31-1.63.86-.71.55-1.2 1.29-.49.73-.73 1.61-.42 1.13-1.08 1.5-.66.37-1.91.17l-3.19-.56q.37-2.55 1.42-4.47 1.06-1.93 2.64-3.21 1.58-1.29 3.62-1.94 2.05-.65 4.4-.65 2.45 0 4.48.72 2.04.73 3.48 2.05 1.45 1.32 2.26 3.18.8 1.87.8 4.14 0 1.96-.57 3.63-.58 1.67-1.54 3.19-.97 1.52-2.27 2.94t-2.72 2.89l-7.99 8.16q1.15-.35 2.29-.53 1.14-.18 2.17-.18Zm40.67-12.08q0 4.63-.99 8.04-.99 3.42-2.74 5.65-1.76 2.23-4.14 3.32-2.39 1.09-5.16 1.09t-5.13-1.09q-2.37-1.09-4.11-3.32-1.74-2.23-2.72-5.65-.98-3.41-.98-8.04 0-4.66.98-8.06.98-3.41 2.72-5.64 1.74-2.23 4.11-3.32 2.36-1.09 5.13-1.09t5.16 1.09q2.38 1.09 4.14 3.32 1.75 2.23 2.74 5.64.99 3.4.99 8.06Zm-6.25 0q0-3.85-.56-6.37-.56-2.53-1.51-4.02-.94-1.5-2.16-2.1-1.23-.6-2.55-.6-1.3 0-2.51.6-1.22.6-2.15 2.1-.93 1.49-1.48 4.02-.55 2.52-.55 6.37 0 3.84.55 6.37.55 2.52 1.48 4.01.93 1.5 2.15 2.1 1.21.6 2.51.6 1.32 0 2.55-.6 1.22-.6 2.16-2.1.95-1.49 1.51-4.01.56-2.53.56-6.37Zm9.76-17.72h24.47v2.62q0 1.18-.24 1.9-.25.73-.49 1.22l-13.43 27.63q-.42.86-1.18 1.46t-2.03.6h-4.39l13.7-27.07q.47-.84.92-1.53.45-.7 1.02-1.34h-16.96q-.56 0-.98-.42-.41-.41-.41-.98v-4.09Z"/></svg>